<?xml version="1.0" encoding="utf-8"?>
<!-- Generator: Adobe Illustrator 24.0.1, SVG Export Plug-In . SVG Version: 6.00 Build 0)  -->
<svg version="1.1" baseProfile="basic" id="Layer_1"
	 xmlns="http://www.w3.org/2000/svg" xmlns:xlink="http://www.w3.org/1999/xlink" x="0px" y="0px" viewBox="0 0 89.23 81.26"
	 xml:space="preserve">
<g>
	<path d="M70.15,11.66l-3.6,3.6c-0.34,0.34-0.34,0.89,0,1.23c0.34,0.34,0.89,0.34,1.23,0l3.6-3.6c0.34-0.34,0.34-0.89,0-1.23
		C71.04,11.32,70.49,11.32,70.15,11.66z"/>
	<path d="M63.9,17.91L50.61,31.19c-0.34,0.34-0.34,0.89,0,1.23c0.34,0.34,0.89,0.34,1.23,0l13.28-13.29c0.34-0.34,0.34-0.89,0-1.23
		C64.79,17.57,64.24,17.57,63.9,17.91z"/>
	<path d="M59.61,36.33c0.34,0.34,0.89,0.34,1.23,0v0l9.95-9.96c0.34-0.34,0.34-0.89,0-1.23c-0.34-0.34-0.89-0.34-1.23,0l-9.95,9.96
		C59.27,35.44,59.27,35.99,59.61,36.33z"/>
	<path d="M57.26,37.45l-1.48,1.48c-0.35,0.33-0.36,0.88-0.03,1.23c0.33,0.35,0.88,0.36,1.23,0.03L57,40.16l1.48-1.48
		c0.35-0.33,0.36-0.88,0.03-1.23c-0.33-0.35-0.88-0.36-1.23-0.03L57.26,37.45z"/>
	<path d="M50.06,45.88c0.34,0.34,0.89,0.34,1.23,0l3.4-3.4c0.33-0.35,0.32-0.9-0.03-1.23c-0.33-0.32-0.86-0.32-1.2,0l-3.4,3.4
		C49.72,44.99,49.72,45.54,50.06,45.88L50.06,45.88z"/>
	<path d="M70.15,39.57c0.34,0.34,0.89,0.34,1.23,0v0l1.4-1.4c0.34-0.34,0.34-0.89,0-1.23c-0.34-0.34-0.89-0.34-1.23,0l-1.4,1.4
		C69.81,38.68,69.81,39.23,70.15,39.57L70.15,39.57z"/>
	<path d="M67.8,40.69l-5.73,5.73c-0.34,0.34-0.34,0.89,0,1.23c0.34,0.34,0.89,0.34,1.23,0l5.73-5.73c0.34-0.34,0.34-0.89,0-1.23
		C68.69,40.35,68.14,40.35,67.8,40.69z"/>
	<path d="M85.31,0.04H39.85c-0.48,0-0.87,0.39-0.87,0.87v47.4c0,0.48,0.39,0.87,0.87,0.87c0.48,0,0.87-0.39,0.87-0.87V1.78h44.59
		c0.48,0,0.87-0.39,0.87-0.87C86.18,0.43,85.79,0.04,85.31,0.04z"/>
	<path d="M39.85,51.33c-0.48,0-0.87,0.39-0.87,0.87v7.02c0,0.48,0.39,0.87,0.87,0.87h45.46c0.48,0,0.87-0.39,0.87-0.87V4.81
		c0-0.48-0.39-0.87-0.87-0.87c-0.48,0-0.87,0.39-0.87,0.87v53.53H40.72v-6.15C40.72,51.71,40.33,51.33,39.85,51.33z"/>
	<path d="M89.23,80.35c0-0.48-0.39-0.87-0.87-0.87H0.92c-0.48,0-0.87,0.39-0.87,0.87c0,0.48,0.39,0.87,0.87,0.87h87.44
		C88.84,81.22,89.23,80.83,89.23,80.35z"/>
	<path d="M88.36,73.75H34.45v-2.97h0.63c0.48,0,0.87-0.39,0.87-0.87c0-0.48-0.39-0.87-0.87-0.87h-0.63v-7.62
		c0-0.48-0.39-0.87-0.87-0.87c-0.48,0-0.87,0.39-0.87,0.87v7.62h-2.22v-7.68c0-2.8-2.27-5.07-5.07-5.08c-1.24,0-2.44,0.45-3.37,1.28
		v-2.09c0-0.48-0.39-0.87-0.87-0.87h-9.23c-0.48,0-0.87,0.39-0.87,0.87v1.78c0,0.48,0.39,0.87,0.87,0.87c0.48,0,0.87-0.39,0.87-0.87
		v-0.92h7.5v12.71h-7.5v-8.78c0-0.48-0.39-0.87-0.87-0.87c-0.48,0-0.87,0.39-0.87,0.87v8.78H8.94v-7.62c0-0.48-0.39-0.87-0.87-0.87
		c-0.48,0-0.87,0.39-0.87,0.87v7.62H6.1c-0.48,0-0.87,0.39-0.87,0.87c0,0.48,0.39,0.87,0.87,0.87h1.1v2.97H0.92
		c-0.48,0-0.87,0.39-0.87,0.87c0,0.48,0.39,0.87,0.87,0.87h87.44c0.48,0,0.87-0.39,0.87-0.87C89.23,74.14,88.84,73.75,88.36,73.75z
		 M32.71,70.78v2.97h-2.22v-2.97H32.71z M28.76,73.75h-6.7v-2.97h6.7V73.75z M22.06,62.91l0.02-0.19v-1.36
		c0-1.84,1.5-3.34,3.34-3.34c1.84,0,3.34,1.49,3.34,3.34v7.68h-6.7L22.06,62.91z M20.32,70.78v2.97h-7.5v-2.97H20.32z M8.93,70.78
		h2.15v2.97H8.93V70.78z"/>
	<path d="M27.25,55.75c0.48,0,0.87-0.39,0.87-0.87v-1.45c0-0.48-0.39-0.87-0.87-0.87H23.6c-0.48,0-0.87,0.39-0.87,0.87v1.45
		c0,0.48,0.39,0.87,0.87,0.87c0.48,0,0.87-0.39,0.87-0.87V54.3h1.92v0.58C26.38,55.36,26.77,55.75,27.25,55.75z"/>
	<path d="M22.28,48.5c0.48,0,0.87-0.39,0.87-0.87c0-0.48-0.39-0.87-0.87-0.87h-5.7c-0.48,0-0.87,0.39-0.87,0.87v2.54h-1.74
		c-0.48,0-0.87,0.39-0.87,0.87v1.84c0,0.48,0.39,0.87,0.87,0.87c0.48,0,0.87-0.39,0.87-0.87v-0.97h3.46v0.97
		c0,0.48,0.39,0.87,0.87,0.87c0.48,0,0.87-0.39,0.87-0.87v-1.84c0-0.48-0.39-0.87-0.87-0.87h-1.74V48.5H22.28z"/>
	<path d="M0,8.57c0,0.48,0.39,0.87,0.87,0.87h4.2v17.53c0,3.93,3.19,7.12,7.12,7.12h12.79c0.48,0,0.87-0.39,0.87-0.87V9.34h8.14
		c0.48,0,0.87-0.39,0.87-0.87c0-0.48-0.39-0.87-0.87-0.87h-2.2V6.75c0-2.28-1.85-4.14-4.14-4.14c-0.48,0-0.87,0.39-0.87,0.87
		c0,0.48,0.39,0.87,0.87,0.87c1.33,0,2.4,1.07,2.4,2.4V7.6h-5.07c-0.48,0-0.87,0.39-0.87,0.87v20.31H11.15
		c-0.48,0-0.87,0.39-0.87,0.87c0,0.48,0.39,0.87,0.87,0.87h12.96v1.84H12.19c-2.97,0-5.38-2.41-5.38-5.38V8.57
		c0-2.34,1.9-4.23,4.23-4.23h13.08v1.01c0,0.48,0.39,0.87,0.87,0.87c0.48,0,0.87-0.39,0.87-0.87V3.47c0-0.48-0.39-0.87-0.87-0.87
		H11.04c-2.96,0-5.47,2.17-5.91,5.1H0.87C0.39,7.7,0,8.09,0,8.57z"/>
</g>
</svg>
