<?xml version="1.0" encoding="utf-8"?>
<!-- Generator: Adobe Illustrator 24.0.1, SVG Export Plug-In . SVG Version: 6.00 Build 0)  -->
<svg version="1.1" baseProfile="basic" id="Layer_1"
	 xmlns="http://www.w3.org/2000/svg" xmlns:xlink="http://www.w3.org/1999/xlink" x="0px" y="0px" viewBox="0 0 77.91 79.19"
	 xml:space="preserve">
<g>
	<path d="M48.01,47.71v-7.39c0-6.29-5.23-11.41-11.67-11.41H19.2c-6.44,0-11.67,5.12-11.67,11.41v7.25L0.22,61.9l-0.01,0.02
		c-0.14,0.29-0.23,0.62-0.23,0.96v8.57c0,1.22,0.99,2.21,2.21,2.21h0.56v5.01c0,0.35,0.29,0.64,0.64,0.64h2.89
		c0.24,0,0.46-0.13,0.57-0.34l2.72-5.3h35.78l2.72,5.3c0.11,0.21,0.33,0.34,0.57,0.34h2.89c0.35,0,0.64-0.29,0.64-0.64v-5.01h0.68
		c1.22,0,2.21-0.99,2.21-2.21v-8.57c0-0.47-0.15-0.9-0.4-1.26L48.01,47.71L48.01,47.71z M8.59,48.3h4.01v2.23
		c0,0.93,0.76,1.69,1.69,1.69h12.41c0.4,0,0.76-0.14,1.05-0.38c0.29,0.23,0.65,0.38,1.05,0.38H41.2c0.93,0,1.69-0.76,1.69-1.69V48.3
		h4l5.9,12.37H2.27L8.59,48.3z M13.87,44.8c0-0.22,0.19-0.41,0.41-0.41h12.41c0.22,0,0.41,0.19,0.41,0.41v5.72
		c0,0.22-0.19,0.41-0.41,0.41H14.28c-0.22,0-0.41-0.19-0.41-0.41V44.8z M41.61,50.53c0,0.22-0.19,0.41-0.41,0.41H28.79
		c-0.22,0-0.41-0.19-0.41-0.41V44.8c0-0.22,0.19-0.41,0.41-0.41H41.2c0.22,0,0.41,0.19,0.41,0.41V50.53z M19.2,30.19h17.14
		c5.73,0,10.4,4.55,10.4,10.14v6.71h-3.86V44.8c0-0.93-0.76-1.69-1.69-1.69H28.79c-0.4,0-0.76,0.14-1.05,0.38
		c-0.29-0.23-0.65-0.38-1.05-0.38H14.28c-0.93,0-1.69,0.76-1.69,1.69v2.23H8.8v-6.71C8.8,34.73,13.46,30.19,19.2,30.19L19.2,30.19z
		 M5.88,78.03H4.02v-4.38h4.11L5.88,78.03z M50.88,78.03h-1.86l-2.25-4.38h4.11V78.03z M53.77,71.45c0,0.52-0.42,0.94-0.94,0.94
		l-50.65,0c-0.52,0-0.94-0.42-0.94-0.94v-8.57c0-0.52,0.42-0.94,0.94-0.94h50.65c0.52,0,0.94,0.42,0.94,0.94L53.77,71.45
		L53.77,71.45z M76.55,29.91h-8.22v-7.85h6.02c0.44,0,0.84-0.21,1.09-0.57s0.32-0.8,0.17-1.22l-3.55-10.02
		c-0.19-0.54-0.69-0.89-1.26-0.89h-8.74c-0.58,0-1.07,0.35-1.26,0.9l-3.48,10.02c-0.14,0.41-0.08,0.86,0.17,1.21
		s0.65,0.56,1.09,0.56h5.96v7.85h-8.02c-0.75,0-1.34,0.73-1.34,1.65v25.66c0,0.93,0.59,1.65,1.34,1.65h0.59v6.03
		c0,0.35,0.29,0.64,0.64,0.64h2.11c0.32,0,0.59-0.23,0.63-0.55l0.85-6.12h10.92L73.1,65c0.04,0.31,0.31,0.55,0.63,0.55h2.11
		c0.35,0,0.64-0.29,0.64-0.64v-6.03h0.08c0.75,0,1.34-0.73,1.34-1.65V31.56C77.89,30.64,77.3,29.91,76.55,29.91L76.55,29.91z
		 M56.45,40.72h20.17v8.09H56.45V40.72z M58.52,20.76l-0.01-0.06L62,10.68l0.06-0.04h8.74l0.06,0.04l3.55,10.02l-0.01,0.06
		l-0.05,0.03H58.58L58.52,20.76L58.52,20.76z M65.81,22.06h1.25v7.85h-1.25V22.06z M56.56,31.19H76.5c0.04,0.05,0.11,0.18,0.11,0.38
		v7.89H56.45v-7.89C56.45,31.36,56.52,31.23,56.56,31.19L56.56,31.19z M59.29,64.28h-0.92v-5.39h1.67L59.29,64.28z M75.2,64.28
		h-0.92l-0.75-5.39h1.67V64.28z M76.5,57.61H56.56c-0.04-0.05-0.11-0.18-0.11-0.38v-7.15h20.17v7.15
		C76.62,57.44,76.55,57.57,76.5,57.61L76.5,57.61z M66.5,37.11c0.92,0,1.66-0.75,1.66-1.66c0-0.92-0.75-1.66-1.66-1.66
		c-0.92,0-1.66,0.75-1.66,1.66C64.84,36.37,65.59,37.11,66.5,37.11z M66.5,35.06c0.21,0,0.39,0.18,0.39,0.39s-0.18,0.39-0.39,0.39
		s-0.39-0.18-0.39-0.39S66.29,35.06,66.5,35.06z M66.63,43.28c-0.92,0-1.66,0.75-1.66,1.66c0,0.92,0.75,1.66,1.66,1.66
		c0.92,0,1.66-0.75,1.66-1.66C68.29,44.02,67.55,43.28,66.63,43.28z M66.63,45.33c-0.21,0-0.39-0.18-0.39-0.39s0.18-0.39,0.39-0.39
		s0.39,0.18,0.39,0.39S66.85,45.33,66.63,45.33z M66.38,52.19c-0.92,0-1.66,0.75-1.66,1.66c0,0.92,0.75,1.66,1.66,1.66
		c0.92,0,1.66-0.75,1.66-1.66C68.04,52.93,67.3,52.19,66.38,52.19z M66.38,54.24c-0.21,0-0.39-0.18-0.39-0.39s0.18-0.39,0.39-0.39
		s0.39,0.18,0.39,0.39S66.6,54.24,66.38,54.24z M7.11,25.97h42.86c1.19,0,2.16-0.97,2.16-2.16l0-21.55c0-1.19-0.97-2.16-2.16-2.16
		H7.12c-1.19,0-2.16,0.97-2.16,2.16v21.55C4.96,25.01,5.93,25.98,7.11,25.97L7.11,25.97z M49.97,24.7L7.12,24.71
		c-0.49,0-0.88-0.4-0.88-0.88v-5.35c0.28-0.29,0.58-0.61,0.9-0.95c2.37-2.52,6.34-6.73,9.13-6.86c1.44-0.07,2.78,0.79,4.63,1.96
		c1.42,0.91,3.15,2.01,5.46,3.04c-1.06,1.08-2.16,2.2-3.37,3.23c-0.27,0.23-0.3,0.63-0.07,0.9c0.13,0.15,0.3,0.23,0.48,0.23
		c0.14,0,0.29-0.05,0.41-0.15c1.29-1.09,2.43-2.25,3.53-3.38c2.52-2.57,4.7-4.79,7.58-5.07c1.08-0.1,3.88,1.64,6.6,3.32
		c3.02,1.88,6.42,3.98,9.35,4.89v4.19c0,0.49-0.39,0.88-0.88,0.88L49.97,24.7z M7.12,1.39h42.86c0.49,0,0.88,0.39,0.88,0.88V18.3
		c-2.69-0.93-5.85-2.88-8.68-4.64c-3.65-2.27-5.96-3.65-7.39-3.51c-2.96,0.29-5.21,2.27-7.48,4.54c-2.45-1.05-4.27-2.2-5.74-3.14
		C19.6,10.3,18.04,9.3,16.2,9.39c-3.29,0.16-7.3,4.41-9.97,7.23V2.28C6.23,1.79,6.62,1.39,7.12,1.39L7.12,1.39z M27.02,10.95
		c1.9,0,3.44-1.54,3.44-3.44s-1.54-3.44-3.44-3.44s-3.44,1.54-3.44,3.44S25.12,10.95,27.02,10.95z M27.02,5.33
		c1.2,0,2.17,0.97,2.17,2.17c0,1.2-0.97,2.17-2.17,2.17c-1.2,0-2.17-0.97-2.17-2.17C24.85,6.31,25.82,5.33,27.02,5.33z"/>
</g>
</svg>
