<?xml version="1.0" encoding="utf-8"?>
<!-- Generator: Adobe Illustrator 24.0.1, SVG Export Plug-In . SVG Version: 6.00 Build 0)  -->
<svg version="1.1" baseProfile="basic" id="Layer_1"
	 xmlns="http://www.w3.org/2000/svg" xmlns:xlink="http://www.w3.org/1999/xlink" x="0px" y="0px" viewBox="0 0 90.36 83"
	 xml:space="preserve">
<g>
	<path fill-rule="evenodd" clip-rule="evenodd" d="M88.65,32.44l1.71,49.29c0.02,0.61-0.46,1.12-1.07,1.14l-2.47,0.07
		c-0.54,0.01-1-0.37-1.11-0.88l-3.85-18.31H69.52L65.58,82c-0.11,0.52-0.57,0.87-1.08,0.87h-2.61c-0.61,0-1.11-0.49-1.11-1.11
		l0.02-0.19l2.51-23.56c0.06-0.58,0.57-1.02,1.15-0.99l17.91-0.14c0.1-1.53-0.03-3.83-0.19-6.39c-0.48-8.17-1.11-18.78,5.29-19.18
		c0.61-0.03,1.13,0.43,1.17,1.04L88.65,32.44L88.65,32.44z M82.18,16.92L45.64,0.16l-0.08-0.03h0l-0.02-0.01l-0.01,0h0l-0.01,0
		L45.5,0.1h0L45.47,0.1h0l-0.01,0c-0.18-0.05-0.37-0.05-0.55,0H44.9l-0.02,0l-0.01,0h0l-0.02,0L44.7,0.16L8.16,16.93
		c-0.52,0.09-0.92,0.54-0.92,1.09v5.74c0,0.61,0.49,1.11,1.11,1.11h35.73v18.93H22.42c-0.73,0-1.4,0.3-1.88,0.78
		c-0.48,0.48-0.78,1.15-0.78,1.88v3.83c0,0.73,0.3,1.4,0.78,1.88c0.48,0.48,1.15,0.78,1.88,0.78l18.69,0v21.72h-3.06
		c-0.9,0-1.72,0.37-2.32,0.96s-0.96,1.42-0.96,2.32v3.9c0,0.61,0.49,1.11,1.11,1.11h18.61c0.61,0,1.11-0.49,1.11-1.11v-3.9
		c0-0.9-0.37-1.72-0.96-2.32s-1.42-0.96-2.32-0.96h-3.06V52.94h18.69c0.73,0,1.4-0.3,1.88-0.78c0.48-0.48,0.78-1.15,0.78-1.88v-3.83
		c0-0.73-0.3-1.4-0.78-1.88c-0.48-0.48-1.15-0.78-1.88-0.78l-21.65,0V24.86h35.73c0.61,0,1.11-0.5,1.11-1.11v-5.74
		C83.12,17.46,82.72,17,82.18,16.92L82.18,16.92z M9.45,19.12h71.46v3.52H9.45V19.12z M55.19,16.91H35.16L45.18,3.04L55.19,16.91z
		 M32.43,16.91H13.48l28.35-13L32.43,16.91z M48.52,3.9l28.35,13H57.91L48.52,3.9z M47.03,74.65h-3.71V52.94h3.71V74.65z
		 M52.31,76.87c0.29,0,0.56,0.12,0.75,0.31c0.19,0.19,0.31,0.46,0.31,0.75v2.79h-16.4v-2.79c0-0.29,0.12-0.56,0.31-0.75
		s0.46-0.31,0.75-0.31H52.31z M67.94,46H22.42c-0.12,0-0.23,0.05-0.32,0.13c-0.08,0.08-0.13,0.19-0.13,0.32v3.83
		c0,0.12,0.05,0.23,0.13,0.32c0.08,0.08,0.19,0.13,0.32,0.13h45.51c0.12,0,0.23-0.05,0.32-0.13c0.08-0.08,0.13-0.19,0.13-0.32v-3.83
		c0-0.12-0.05-0.23-0.13-0.32C68.17,46.05,68.06,46,67.94,46z M3.87,33.87c2.97,1.77,2.48,10.01,2.1,16.51
		c-0.19,3.26-0.36,6.13-0.05,7.81c0.09,0.51,0.54,0.9,1.08,0.9l17.96,0.14l2.29,21.43h-0.49l-3.94-18.24h0
		c-0.11-0.5-0.55-0.87-1.08-0.87H7.67c-0.53-0.03-1.03,0.34-1.14,0.88L2.68,80.71l-0.43-0.01L3.87,33.87z M0,81.73l1.71-49.29
		l0-0.08c0.04-0.61,0.56-1.07,1.17-1.04c6.4,0.4,5.77,11,5.29,19.18c-0.15,2.56-0.29,4.86-0.19,6.39l17.92,0.14
		c0.58-0.03,1.09,0.4,1.15,0.99l2.51,23.56l0.02,0.19c0,0.61-0.49,1.11-1.11,1.11h-2.61c-0.51,0-0.97-0.35-1.08-0.87l-3.94-18.25
		H8.5L4.65,82.06c-0.11,0.51-0.57,0.89-1.11,0.88l-2.47-0.07C0.46,82.84-0.02,82.33,0,81.73L0,81.73z M88.11,80.69l-1.62-46.83
		c-2.96,1.77-2.48,10.01-2.1,16.51c0.19,3.26,0.36,6.13,0.05,7.81c-0.09,0.51-0.54,0.9-1.08,0.9L65.4,59.23l-2.29,21.43h0.49
		l3.94-18.24h0c0.11-0.5,0.55-0.87,1.08-0.87h14.07c0.54-0.03,1.03,0.33,1.14,0.88l3.85,18.28L88.11,80.69z"/>
</g>
</svg>
