<?xml version="1.0" encoding="utf-8"?>
<!-- Generator: Adobe Illustrator 24.0.1, SVG Export Plug-In . SVG Version: 6.00 Build 0)  -->
<svg version="1.1" baseProfile="basic" id="Layer_1"
	 xmlns="http://www.w3.org/2000/svg" xmlns:xlink="http://www.w3.org/1999/xlink" x="0px" y="0px" viewBox="0 0 167.61 79.19"
	 xml:space="preserve">
<g>
	<path d="M40.35,79.87H30.07c-2.98,0-5.39-2.42-5.39-5.39V61.6c0-2.98,2.42-5.39,5.39-5.39h4.88c2.98,0,5.39,2.42,5.39,5.39
		L40.35,79.87L40.35,79.87z M30.08,58.9c-1.49,0-2.69,1.21-2.69,2.69v12.88c0,1.49,1.21,2.69,2.69,2.69h7.58V61.58
		c0-1.49-1.21-2.69-2.69-2.69L30.08,58.9L30.08,58.9z"/>
	<path d="M116.64,79.87H37.67V65.79h78.97V79.87z M40.38,77.17h73.56V68.5H40.38V77.17z"/>
	<path d="M116.62,68.5H90.26V42.79h25.85c2.98,0,5.39,2.42,5.39,5.39V58.9h-2.12c-1.49,0-2.69,1.21-2.69,2.69v0.01L116.62,68.5z
		 M92.96,65.79h20.98l0.04-4.21c0-2.78,2.11-5.07,4.82-5.36v-8.04c0-1.49-1.21-2.69-2.69-2.69H92.96V65.79z"/>
	<path d="M92.8,68.5H61.54V42.79h31.25L92.8,68.5L92.8,68.5z M64.25,65.79h25.84v-20.3H64.25V65.79z"/>
	<path d="M64.09,68.5h-26.4l-0.03-6.91c0-1.49-1.21-2.69-2.69-2.69h-2.13V48.18c0-2.98,2.42-5.39,5.39-5.39h25.85V68.5z
		 M40.37,65.79h21.01v-20.3H38.23c-1.49,0-2.69,1.21-2.69,2.69v8.04c2.71,0.29,4.82,2.59,4.82,5.37L40.37,65.79z"/>
	<path d="M124.26,79.87h-10.28V61.59c0-2.98,2.42-5.39,5.39-5.39h4.88c2.98,0,5.39,2.42,5.39,5.39v12.88
		C129.67,77.46,127.24,79.87,124.26,79.87z M116.69,77.17h7.58c1.49,0,2.69-1.21,2.69-2.69V61.6c0-1.49-1.21-2.69-2.69-2.69h-4.88
		c-1.49,0-2.69,1.21-2.69,2.69L116.69,77.17L116.69,77.17z"/>
	<path d="M51.03,57.31l-0.76-0.72c0.15-0.28,0.23-0.6,0.23-0.95c0-0.38-0.1-0.73-0.28-1.03l0.72-0.76c0.22-0.23,0.21-0.59-0.02-0.8
		c-0.23-0.22-0.59-0.21-0.8,0.02l-0.72,0.76c-0.28-0.15-0.6-0.23-0.95-0.23c-0.38,0-0.73,0.1-1.03,0.28l-0.76-0.72
		c-0.23-0.22-0.59-0.21-0.8,0.02c-0.22,0.23-0.21,0.59,0.02,0.8l0.76,0.72c-0.15,0.29-0.23,0.6-0.23,0.95c0,0.38,0.1,0.73,0.28,1.03
		l-0.72,0.76c-0.22,0.23-0.21,0.59,0.02,0.8c0.11,0.11,0.25,0.15,0.39,0.15c0.15,0,0.3-0.05,0.41-0.17l0.72-0.76
		c0.29,0.15,0.6,0.23,0.95,0.23c0.38,0,0.73-0.1,1.03-0.28l0.76,0.72c0.11,0.11,0.25,0.15,0.39,0.15c0.15,0,0.3-0.05,0.41-0.17
		C51.27,57.89,51.26,57.53,51.03,57.31z M47.54,55.64c0-0.5,0.42-0.92,0.92-0.92c0.5,0,0.92,0.42,0.92,0.92s-0.42,0.92-0.92,0.92
		C47.96,56.56,47.54,56.15,47.54,55.64z"/>
	<path d="M79.74,57.31l-0.76-0.72c0.15-0.28,0.23-0.6,0.23-0.95c0-0.38-0.1-0.73-0.28-1.03l0.72-0.76c0.22-0.23,0.21-0.59-0.02-0.8
		s-0.59-0.21-0.8,0.02l-0.72,0.76c-0.29-0.15-0.6-0.23-0.95-0.23c-0.38,0-0.73,0.1-1.03,0.28l-0.76-0.72
		c-0.23-0.22-0.59-0.21-0.8,0.02c-0.22,0.23-0.21,0.59,0.02,0.8l0.76,0.72c-0.15,0.29-0.23,0.6-0.23,0.95c0,0.38,0.1,0.73,0.28,1.03
		l-0.72,0.76c-0.22,0.23-0.21,0.59,0.02,0.8c0.11,0.11,0.25,0.15,0.39,0.15c0.15,0,0.3-0.05,0.41-0.17l0.72-0.76
		c0.29,0.15,0.6,0.23,0.95,0.23c0.38,0,0.73-0.1,1.03-0.28l0.76,0.72c0.11,0.11,0.25,0.15,0.39,0.15c0.15,0,0.3-0.05,0.41-0.17
		C79.97,57.89,79.96,57.53,79.74,57.31z M76.26,55.64c0-0.5,0.42-0.92,0.92-0.92c0.51,0,0.92,0.42,0.92,0.92s-0.42,0.92-0.92,0.92
		C76.66,56.56,76.26,56.15,76.26,55.64z"/>
	<path d="M108.45,57.31l-0.76-0.72c0.15-0.28,0.23-0.6,0.23-0.95c0-0.38-0.1-0.73-0.28-1.03l0.72-0.76c0.22-0.23,0.21-0.59-0.02-0.8
		s-0.59-0.21-0.8,0.02l-0.72,0.76c-0.29-0.15-0.6-0.23-0.95-0.23c-0.38,0-0.73,0.1-1.03,0.28l-0.76-0.72
		c-0.23-0.22-0.59-0.21-0.8,0.02s-0.21,0.59,0.02,0.8l0.76,0.72c-0.15,0.29-0.23,0.6-0.23,0.95c0,0.38,0.1,0.73,0.28,1.03
		l-0.72,0.76c-0.22,0.23-0.21,0.59,0.02,0.8c0.11,0.11,0.25,0.15,0.39,0.15c0.15,0,0.3-0.05,0.41-0.17l0.72-0.76
		c0.29,0.15,0.6,0.23,0.95,0.23c0.38,0,0.73-0.1,1.03-0.28l0.76,0.72c0.11,0.11,0.25,0.15,0.39,0.15c0.15,0,0.3-0.05,0.41-0.17
		C108.69,57.89,108.68,57.53,108.45,57.31z M104.96,55.64c0-0.5,0.42-0.92,0.92-0.92s0.92,0.42,0.92,0.92s-0.42,0.92-0.92,0.92
		S104.96,56.15,104.96,55.64z"/>
	<path d="M18.31,79.87H2.81c-0.75,0-1.35-0.6-1.35-1.35s0.6-1.35,1.35-1.35h15.5c0.75,0,1.35,0.6,1.35,1.35S19.06,79.87,18.31,79.87
		z"/>
	<path d="M10.56,79.87c-0.75,0-1.35-0.6-1.35-1.35V38.55c0-0.75,0.6-1.35,1.35-1.35c0.75,0,1.35,0.6,1.35,1.35v39.97
		C11.91,79.27,11.31,79.87,10.56,79.87z"/>
	<path d="M19.76,39.54H1.36c-0.4,0-0.78-0.18-1.04-0.48c-0.25-0.31-0.37-0.71-0.3-1.1l2.71-15.7c0.11-0.65,0.68-1.13,1.33-1.13
		h12.99c0.66,0,1.22,0.48,1.33,1.13l2.71,15.7c0.07,0.4-0.05,0.79-0.3,1.1C20.53,39.36,20.16,39.54,19.76,39.54z M2.96,36.83h15.19
		l-2.24-12.99H5.2L2.96,36.83z"/>
	<path d="M105.3,32.7H49.04c-0.75,0-1.35-0.6-1.35-1.35V0.67c0-0.75,0.6-1.35,1.35-1.35h56.25c0.75,0,1.35,0.6,1.35,1.35v30.69
		C106.66,32.1,106.04,32.7,105.3,32.7z M50.39,30h53.55V2.02H50.39V30z"/>
	<path d="M101.46,27.97H52.88c-0.25,0-0.45-0.2-0.45-0.45V4.5c0-0.25,0.2-0.45,0.45-0.45h48.59c0.25,0,0.45,0.2,0.45,0.45v23.01
		C101.91,27.77,101.71,27.97,101.46,27.97z M53.33,27.07h47.68V4.95H53.33V27.07z"/>
	<path d="M73.17,27.89H52.88c-0.16,0-0.32-0.09-0.4-0.23c-0.08-0.14-0.07-0.32,0.02-0.46l10.14-15.56c0.08-0.13,0.23-0.21,0.38-0.21
		c0.15,0,0.3,0.08,0.38,0.21l10.15,15.56c0.09,0.14,0.1,0.32,0.02,0.46C73.49,27.8,73.33,27.89,73.17,27.89z M53.71,26.98h18.63
		L63.02,12.7L53.71,26.98z"/>
	<path d="M86.67,27.89H73.08c-0.16,0-0.32-0.09-0.4-0.23c-0.08-0.14-0.07-0.32,0.02-0.46l6.79-10.42c0.08-0.13,0.23-0.21,0.38-0.21
		s0.3,0.08,0.38,0.21l6.79,10.42c0.09,0.14,0.1,0.32,0.02,0.46C86.98,27.8,86.83,27.89,86.67,27.89z M73.91,26.98h11.93l-5.96-9.14
		L73.91,26.98z"/>
	<path d="M93.1,15.3c-1.89,0-3.43-1.53-3.43-3.43c0-1.89,1.53-3.43,3.43-3.43s3.43,1.53,3.43,3.43C96.53,13.77,94.99,15.3,93.1,15.3
		z M93.1,9.36c-1.39,0-2.53,1.14-2.53,2.53s1.14,2.53,2.53,2.53c1.39,0,2.53-1.14,2.53-2.53C95.62,10.48,94.5,9.36,93.1,9.36z"/>
	<path d="M166.26,72.26h-29.58c-0.75,0-1.35-0.6-1.35-1.35V59.28c0-0.75,0.6-1.35,1.35-1.35h29.58c0.75,0,1.35,0.6,1.35,1.35v11.63
		C167.61,71.65,167.01,72.26,166.26,72.26z M138.03,69.55h26.87v-8.92h-26.87V69.55z"/>
	<path d="M136.68,79.87c-0.75,0-1.35-0.6-1.35-1.35v-7.61c0-0.75,0.6-1.35,1.35-1.35c0.75,0,1.35,0.6,1.35,1.35v7.61
		C138.03,79.27,137.43,79.87,136.68,79.87z"/>
	<path d="M166.26,79.87c-0.75,0-1.35-0.6-1.35-1.35v-7.61c0-0.75,0.6-1.35,1.35-1.35c0.75,0,1.35,0.6,1.35,1.35v7.61
		C167.61,79.27,167.01,79.87,166.26,79.87z"/>
	<path d="M154.57,66.45h-6.21c-0.75,0-1.35-0.6-1.35-1.35s0.6-1.35,1.35-1.35h6.21c0.75,0,1.35,0.6,1.35,1.35
		S155.32,66.45,154.57,66.45z"/>
	<path d="M155.96,60.55h-9.29c-0.69,0-1.26-0.51-1.34-1.2l-1.24-10.83c-0.04-0.38,0.08-0.77,0.33-1.06
		c0.25-0.29,0.62-0.45,1.01-0.45h11.77c0.39,0,0.75,0.16,1.01,0.45c0.26,0.29,0.38,0.67,0.33,1.06l-1.24,10.83
		C157.24,60.04,156.66,60.55,155.96,60.55z M147.88,57.84h6.88l0.93-8.12h-8.74L147.88,57.84z"/>
	<path d="M150.98,48.73c-0.5,0-0.9-0.41-0.9-0.9v-8.98c0-0.5,0.41-0.9,0.9-0.9s0.9,0.41,0.9,0.9v8.98
		C151.89,48.34,151.48,48.73,150.98,48.73z"/>
	<path d="M150.91,39.96c-0.34,0-0.67-0.2-0.81-0.52c-0.02-0.04-0.39-0.82-0.6-1.89c-0.31-1.49-0.18-2.82,0.36-3.87
		s1.56-1.93,2.94-2.54c1-0.44,1.86-0.6,1.89-0.61c0.41-0.07,0.8,0.14,0.97,0.5c0.02,0.04,0.39,0.82,0.6,1.89
		c0.31,1.49,0.18,2.82-0.36,3.87c-0.54,1.05-1.56,1.93-2.94,2.54c-1,0.44-1.86,0.6-1.89,0.61L150.91,39.96z M154.3,32.49
		c-0.86,0.28-2.25,0.88-2.84,2.01c-0.58,1.13-0.26,2.62,0.01,3.48c0.86-0.28,2.25-0.88,2.83-2.01c0.43-0.85,0.35-1.91,0.21-2.65
		C154.46,33,154.38,32.72,154.3,32.49z"/>
	<path d="M155.72,45.89c-1.09,0-2.25-0.41-3.39-1.19c-0.9-0.62-1.49-1.27-1.52-1.3c-0.27-0.31-0.31-0.76-0.08-1.1
		c0.02-0.03,0.5-0.76,1.3-1.51c1.11-1.04,2.32-1.62,3.49-1.71c1.18-0.09,2.46,0.32,3.71,1.17c0.9,0.62,1.49,1.27,1.51,1.3
		c0.27,0.31,0.31,0.76,0.08,1.1c-0.02,0.03-0.51,0.76-1.3,1.51c-1.11,1.04-2.32,1.62-3.49,1.71
		C155.94,45.89,155.83,45.89,155.72,45.89z M152.71,42.72c0.65,0.56,1.8,1.37,3,1.37l0.19-0.01c1.26-0.09,2.37-1.15,2.96-1.83
		c-0.69-0.59-1.93-1.46-3.2-1.36c-0.95,0.07-1.81,0.69-2.36,1.21C153.07,42.32,152.87,42.53,152.71,42.72z"/>
	<path d="M146.92,42.29c-0.68,0-1.3-0.12-1.86-0.34c-1.09-0.45-2.06-1.39-2.79-2.72c-0.52-0.96-0.76-1.8-0.77-1.84
		c-0.11-0.4,0.06-0.81,0.42-1.02c0.04-0.02,0.79-0.45,1.84-0.76c1.45-0.42,2.8-0.42,3.89,0.04c1.09,0.45,2.06,1.39,2.79,2.71
		c0.52,0.96,0.76,1.8,0.77,1.84c0.11,0.4-0.06,0.81-0.42,1.02c-0.04,0.02-0.79,0.45-1.84,0.76
		C148.23,42.19,147.55,42.29,146.92,42.29z M143.49,37.62c0.35,0.83,1.06,2.17,2.25,2.66c1.17,0.49,2.63,0.04,3.46-0.31
		c-0.35-0.83-1.06-2.17-2.25-2.66c-0.88-0.36-1.93-0.19-2.65,0.02C143.99,37.43,143.72,37.53,143.49,37.62z"/>
</g>
</svg>
