<?xml version="1.0" encoding="utf-8"?>
<!-- Generator: Adobe Illustrator 24.0.1, SVG Export Plug-In . SVG Version: 6.00 Build 0)  -->
<svg version="1.1" baseProfile="basic" id="Layer_1"
	 xmlns="http://www.w3.org/2000/svg" xmlns:xlink="http://www.w3.org/1999/xlink" x="0px" y="0px" viewBox="0 0 85.42 81.26"
	 xml:space="preserve">
<g>
	<path d="M19.79,61.46c-0.57,0-1.04,0.47-1.04,1.04v6.25c0,0.57,0.47,1.04,1.04,1.04s1.04-0.47,1.04-1.04V62.5
		C20.84,61.93,20.37,61.46,19.79,61.46z"/>
	<path d="M28.13,61.46c-0.57,0-1.04,0.47-1.04,1.04v6.25c0,0.57,0.47,1.04,1.04,1.04s1.04-0.47,1.04-1.04V62.5
		C29.17,61.93,28.7,61.46,28.13,61.46z"/>
	<path d="M61.46,57.29h-8.33c-0.57,0-1.04,0.47-1.04,1.04v2.08c0,0.57,0.47,1.04,1.04,1.04s1.04-0.47,1.04-1.04v-1.04h6.25v1.04
		c0,0.57,0.47,1.04,1.04,1.04s1.04-0.47,1.04-1.04v-2.08C62.5,57.76,62.04,57.29,61.46,57.29z"/>
	<path d="M53.13,73.96c0.57,0,1.04-0.47,1.04-1.04v-1.04h6.25v1.04c0,0.57,0.47,1.04,1.04,1.04s1.04-0.47,1.04-1.04v-2.08
		c0-0.57-0.47-1.04-1.04-1.04h-8.33c-0.57,0-1.04,0.47-1.04,1.04v2.08C52.09,73.49,52.55,73.96,53.13,73.96z"/>
	<path d="M82.29,50h-3.13c0-1.14-0.94-2.08-2.08-2.08h-1.04c-0.57,0-1.04,0.47-1.04,1.04S75.47,50,76.04,50h-3.13v-1.04
		c0-0.57-0.47-1.04-1.04-1.04s-1.04,0.47-1.04,1.04V50h-3.13c0.57,0,1.04-0.47,1.04-1.04s-0.47-1.04-1.04-1.04h-1.04
		c-1.14,0-2.08,0.94-2.08,2.08h-4.17c0-1.14-0.94-2.08-2.08-2.08h-1.04c-0.57,0-1.04,0.47-1.04,1.04S56.71,50,57.29,50h-3.13v-1.04
		c0-0.57-0.47-1.04-1.04-1.04s-1.04,0.47-1.04,1.04V50h-3.13c0.57,0,1.04-0.47,1.04-1.04s-0.47-1.04-1.04-1.04h-1.04
		c-1.14,0-2.08,0.94-2.08,2.08H42.7c-0.57,0-1.04,0.47-1.04,1.04v2.08H24.44c0.99-1.11,1.61-2.56,1.61-4.17
		c0-0.57-0.47-1.04-1.04-1.04l-14.59,0c-0.57,0-1.04,0.47-1.04,1.04c0,1.61,0.61,3.06,1.61,4.17l-4.73,0V42.71
		c0-2.3,1.86-4.17,4.17-4.17h1.04c1.94,0,3.55,1.33,4.02,3.13l-0.9,0c-0.57,0-1.04,0.47-1.04,1.04s0.47,1.04,1.04,1.04h4.17
		c0.57,0,1.04-0.47,1.04-1.04s-0.47-1.04-1.04-1.04h-1.14c-0.5-2.95-3.06-5.21-6.16-5.21h-1.04c-3.45,0-6.25,2.8-6.25,6.25v10.42
		H3.12c-0.57,0-1.04,0.47-1.04,1.04v26.04c0,0.57,0.47,1.04,1.04,1.04h79.17c0.57,0,1.04-0.47,1.04-1.04V51.04
		C83.34,50.47,82.87,50,82.29,50z M25,55.21h18.75v20.83l-18.75,0V55.21z M23.82,50c-0.47,1.79-2.09,3.13-4.03,3.13h-4.17
		c-1.94,0-3.57-1.33-4.03-3.13H23.82z M4.17,55.21h18.75v20.83l-18.75,0V55.21z M81.25,79.17H4.17v-1.04h77.08L81.25,79.17z
		 M68.75,65.63v10.42H45.84V65.63H68.75z M45.84,63.54v-8.33h22.92v8.33H45.84z M81.25,66.67v9.38H70.84V65.63h10.42V66.67z
		 M81.25,63.54H70.84v-8.33h10.42V63.54z M81.25,53.13h-37.5v-1.04h37.5L81.25,53.13z"/>
	<path d="M84.38,0H1.04C0.47,0,0,0.47,0,1.04v20.83c0,0.57,0.47,1.04,1.04,1.04h83.33c0.57,0,1.04-0.47,1.04-1.04l0-20.83
		C85.42,0.47,84.95,0,84.38,0z M20.84,20.83H2.09V2.08h18.75V20.83z M41.67,20.83H22.92V2.08h18.75V20.83z M62.5,20.83H43.75V2.08
		H62.5V20.83z M83.34,20.83H64.59V2.08h18.75V20.83z"/>
	<path d="M17.71,14.58c0.57,0,1.04-0.47,1.04-1.04V9.37c0-0.57-0.47-1.04-1.04-1.04s-1.04,0.47-1.04,1.04v4.17
		C16.67,14.11,17.14,14.58,17.71,14.58z"/>
	<path d="M38.54,14.58c0.57,0,1.04-0.47,1.04-1.04V9.37c0-0.57-0.47-1.04-1.04-1.04S37.5,8.8,37.5,9.37v4.17
		C37.5,14.11,37.97,14.58,38.54,14.58z"/>
	<path d="M59.38,14.58c0.57,0,1.04-0.47,1.04-1.04V9.37c0-0.57-0.47-1.04-1.04-1.04s-1.04,0.47-1.04,1.04v4.17
		C58.34,14.11,58.8,14.58,59.38,14.58z"/>
	<path d="M80.21,14.58c0.57,0,1.04-0.47,1.04-1.04V9.37c0-0.57-0.47-1.04-1.04-1.04s-1.04,0.47-1.04,1.04v4.17
		C79.17,14.11,79.64,14.58,80.21,14.58z"/>
</g>
</svg>
