<?xml version="1.0" encoding="UTF-8"?>
<svg xmlns="http://www.w3.org/2000/svg" xmlns:xlink="http://www.w3.org/1999/xlink" version="1.1" id="Layer_1" x="0px" y="0px" viewBox="0 0 285 73" xml:space="preserve">
<g>
	<rect x="0.61" y="-0.25" width="0.88" height="12.72"></rect>
	<path d="M4.93,0.94c0-0.38,0.31-0.69,0.69-0.69s0.69,0.31,0.69,0.69S6,1.63,5.62,1.63S4.93,1.32,4.93,0.94z M5.18,3.76h0.88v8.71   H5.18V3.76z"></path>
	<polygon points="17.09,3.76 13.39,12.47 12.33,12.47 8.63,3.76 9.57,3.76 12.83,11.59 16.15,3.76  "></polygon>
	<path d="M27.62,8.15c0,0.13,0,0.25,0,0.44h-7.9c0.19,1.94,1.69,3.26,3.7,3.26c1.44,0,2.51-0.69,3.01-1.57l0.75,0.44   c-0.69,1.19-2.07,1.94-3.82,1.94c-2.69,0-4.57-1.94-4.57-4.57c0-2.57,1.82-4.57,4.51-4.57C25.99,3.57,27.62,5.77,27.62,8.15z    M19.72,7.71h7.02c-0.19-2.13-1.69-3.32-3.38-3.32C21.35,4.39,19.85,5.77,19.72,7.71z"></path>
	<path d="M36.14,0.94c0-0.38,0.31-0.69,0.69-0.69c0.38,0,0.69,0.31,0.69,0.69s-0.31,0.69-0.69,0.69   C36.45,1.63,36.14,1.32,36.14,0.94z M36.39,3.76h0.88v8.71h-0.88V3.76z"></path>
	<path d="M48.36,7.08v5.45h-0.88V7.08c0-1.63-0.94-2.63-2.57-2.63c-1.69,0-3.07,1.13-3.07,3.45v4.57h-0.88V3.76h0.88v1.63   c0.69-1.32,1.75-1.82,3.13-1.82C47.04,3.57,48.36,4.95,48.36,7.08z"></path>
	<path d="M-0.02,53.2l7.71-4.51c1.38,3.26,3.82,5.45,8.27,5.45c4.26,0,5.33-1.69,5.33-3.2c0-2.38-2.26-3.38-8.15-5.01   C7.31,44.3,1.61,41.48,1.61,33.96c0-7.58,6.39-11.97,13.16-11.97c6.45,0,11.47,3.07,14.35,8.83l-7.58,4.45   c-1.32-2.82-3.2-4.51-6.77-4.51c-2.82,0-4.2,1.38-4.2,2.94c0,1.82,0.94,3.01,7.08,4.89c5.95,1.82,12.59,3.89,12.59,12.16   c0,7.58-6.08,12.03-14.6,12.03C7.44,62.91,2.18,58.96-0.02,53.2z"></path>
	<rect x="36.45" y="34.09" width="8.4" height="28.01"></rect>
	<path d="M93.03,44.87V62.1h-8.4V45.62c0-2.82-1.32-4.58-4.01-4.58c-2.82,0-4.39,1.94-4.39,5.26V62.1h-8.4V45.62   c0-2.82-1.32-4.58-4.01-4.58c-2.82,0-4.39,1.94-4.39,5.26V62.1h-8.4V34.09h8.4v2.57c1.32-1.88,3.76-3.38,7.52-3.38   c3.32,0,5.76,1.32,7.33,3.7c1.57-2.26,4.14-3.7,8.15-3.7C88.83,33.27,93.03,37.91,93.03,44.87z"></path>
	<path d="M129.37,48.06c0,8.33-6.08,14.79-13.41,14.79c-3.76,0-6.52-1.32-8.33-3.45v13.85h-8.4V34.02h8.4v2.63   c1.88-2.13,4.57-3.45,8.33-3.45C123.3,33.27,129.37,39.73,129.37,48.06z M120.98,48.06c0-4.2-2.82-6.83-6.64-6.83   c-3.89,0-6.64,2.63-6.64,6.83s2.82,6.83,6.64,6.83C118.16,54.95,120.98,52.32,120.98,48.06z"></path>
	<rect x="135.51" y="21.18" width="8.4" height="40.92"></rect>
	<path d="M165.78,55.39c2.32,0,4.26-0.88,5.39-2.13l6.7,3.88c-2.76,3.82-6.89,5.76-12.22,5.76c-9.59,0-15.54-6.45-15.54-14.79   s6.08-14.79,14.91-14.79c8.21,0,14.22,6.33,14.22,14.79c0,1.19-0.13,2.32-0.31,3.38h-19.92C160.08,54.39,162.64,55.39,165.78,55.39   z M170.92,45.18c-0.88-3.26-3.45-4.45-5.95-4.45c-3.2,0-5.33,1.57-6.14,4.45H170.92z"></path>
	<path d="M189.4,48.06c0-8.21,6.2-14.85,14.98-14.85c5.33,0,9.96,2.69,12.34,6.89l-1.94,1.13c-1.88-3.51-5.89-5.89-10.4-5.89   c-7.58,0-12.78,5.7-12.78,12.72c0,7.08,5.2,12.72,12.78,12.72c4.57,0,8.58-2.44,10.46-6.01l1.94,1.13   c-2.32,4.26-7.02,7.02-12.41,7.02C195.6,62.91,189.4,56.27,189.4,48.06z"></path>
	<rect x="220.6" y="33.71" width="2.19" height="28.76"></rect>
	<polygon points="246.36,35.72 237.33,35.72 237.33,62.47 235.14,62.47 235.14,35.72 226.12,35.72 226.12,33.71 246.42,33.71    246.42,35.72  "></polygon>
	<polygon points="261.83,50.63 261.83,62.47 259.64,62.47 259.64,50.63 249.18,33.71 251.62,33.71 260.77,48.56 269.85,33.71    272.3,33.71  "></polygon>
	<polygon points="39.4,29.45 33.63,29.45 37.83,23.5 43.72,23.5 47.92,29.45 42.15,29.45 40.77,27.26  "></polygon>
	<path d="M285.02,29.07c0,2.26-1.82,4.07-4.07,4.07s-4.07-1.82-4.07-4.07c0-2.26,1.82-4.07,4.07-4.07S285.02,26.82,285.02,29.07z    M284.7,29.07c0-2.13-1.69-3.76-3.76-3.76c-2.07,0-3.76,1.69-3.76,3.76c0,2.07,1.69,3.76,3.76,3.76   C283.01,32.83,284.7,31.14,284.7,29.07z M281.63,29.45l0.94,1.69h-0.63l-0.88-1.57h-0.19h-0.63v1.57h-0.56v-4.14h1.25   c1.07,0,1.5,0.63,1.5,1.32C282.51,28.89,282.26,29.33,281.63,29.45z M281.01,29.07c0.69,0,0.94-0.31,0.94-0.75   c0-0.44-0.31-0.81-0.94-0.81h-0.75v1.57H281.01z"></path>
</g>
</svg>
