<?xml version="1.0" encoding="utf-8"?>
<!-- Generator: Adobe Illustrator 24.0.1, SVG Export Plug-In . SVG Version: 6.00 Build 0)  -->
<svg version="1.1" baseProfile="basic" id="Layer_1"
	 xmlns="http://www.w3.org/2000/svg" xmlns:xlink="http://www.w3.org/1999/xlink" x="0px" y="0px" viewBox="0 0 85 83"
	 xml:space="preserve">
<g>
	<path d="M51.96,23.31H32.83c-4.04,0-7.44,3.4-7.44,7.44v14.88c0,4.04,3.4,7.44,7.44,7.44h19.13c4.04,0,7.44-3.4,7.44-7.44V30.75
		C59.4,26.71,56,23.31,51.96,23.31z M32.83,25.44h19.13c2.97,0,5.31,2.34,5.31,5.31v14.88c0,2.98-2.34,5.31-5.31,5.31H32.83
		c-2.98,0-5.31-2.34-5.31-5.31V30.75C27.52,27.78,29.86,25.44,32.83,25.44z"/>
	<path d="M44.52,59.44h-4.25c-0.64,0-1.06,0.43-1.06,1.06v14.88c0,0.64,0.43,1.06,1.06,1.06h4.25c0.64,0,1.06-0.42,1.06-1.06V60.5
		C45.58,59.87,45.16,59.44,44.52,59.44z M43.46,61.56v12.75h-2.13V61.56H43.46z"/>
	<path d="M44.52,50.94h-4.25c-0.64,0-1.06,0.42-1.06,1.06v4.25c0,0.64,0.43,1.06,1.06,1.06h4.25c0.64,0,1.06-0.42,1.06-1.06V52
		C45.58,51.36,45.16,50.94,44.52,50.94z M43.46,53.06v2.12h-2.13v-2.12H43.46z"/>
	<path d="M40.06,66.45l-12.33,3.83c-1.27,0.42-2.34,1.7-2.34,2.97v0.64c0,0.21,0,0.42,0.21,0.85c0.43,1.49,1.91,2.13,3.19,1.7
		l11.69-3.61c0.43-0.21,0.85-0.64,0.85-1.06v-4.25C41.33,66.67,40.7,66.24,40.06,66.45z M39.21,68.79v2.13l-11.05,3.4
		c-0.21,0-0.64,0-0.64-0.42c0,0,0,0,0-0.21v-0.64c0-0.42,0.21-0.85,0.85-1.06L39.21,68.79z"/>
	<path d="M43.46,67.51v4.25c0,0.42,0.21,0.85,0.85,1.06L56,76.44c0.21,0,0.42,0.21,0.85,0.21c1.49,0,2.55-1.28,2.55-2.55v-0.64
		c0-1.49-0.85-2.55-2.34-2.97l-12.33-3.83C44.1,66.24,43.46,66.67,43.46,67.51z M45.58,70.92v-2.13l10.84,3.4
		c0.42,0.21,0.85,0.64,0.85,1.06v0.64c0,0.21-0.21,0.42-0.43,0.42L45.58,70.92z"/>
	<path d="M30.71,76.44c-1.7,0-3.19,1.49-3.19,3.19c0,1.7,1.49,3.19,3.19,3.19c1.7,0,3.19-1.49,3.19-3.19
		C33.9,77.93,32.41,76.44,30.71,76.44z M30.71,78.56c0.64,0,1.06,0.43,1.06,1.06c0,0.64-0.42,1.06-1.06,1.06
		c-0.64,0-1.06-0.42-1.06-1.06C29.65,78.99,30.07,78.56,30.71,78.56z"/>
	<path d="M42.4,76.44c-1.7,0-3.19,1.49-3.19,3.19c0,1.7,1.49,3.19,3.19,3.19s3.19-1.49,3.19-3.19C45.58,77.93,44.1,76.44,42.4,76.44
		z M42.4,78.56c0.64,0,1.06,0.43,1.06,1.06c0,0.64-0.43,1.06-1.06,1.06s-1.06-0.42-1.06-1.06C41.33,78.99,41.76,78.56,42.4,78.56z"
		/>
	<path d="M54.08,76.44c-1.7,0-3.19,1.49-3.19,3.19c0,1.7,1.49,3.19,3.19,3.19c1.7,0,3.19-1.49,3.19-3.19
		C57.27,77.93,55.78,76.44,54.08,76.44z M54.08,78.56c0.64,0,1.06,0.43,1.06,1.06c0,0.64-0.43,1.06-1.06,1.06
		c-0.64,0-1.06-0.42-1.06-1.06C53.02,78.99,53.45,78.56,54.08,78.56z"/>
	<path d="M26.46,36.06H0.96c-0.64,0-1.06,0.42-1.06,1.06v4.25c0,0.64,0.43,1.06,1.06,1.06h25.5c0.64,0,1.06-0.43,1.06-1.06v-4.25
		C27.52,36.49,27.1,36.06,26.46,36.06z M25.4,38.19v2.13H2.02v-2.13H25.4z"/>
	<path d="M83.83,36.06h-25.5c-0.64,0-1.06,0.42-1.06,1.06v4.25c0,0.64,0.42,1.06,1.06,1.06h25.5c0.64,0,1.06-0.43,1.06-1.06v-4.25
		C84.9,36.49,84.47,36.06,83.83,36.06z M82.77,38.19v2.13H59.4v-2.13H82.77z"/>
	<path d="M56.21,55.19H28.58c-1.7,0-3.19,1.49-3.19,3.19c0,1.7,1.49,3.19,3.19,3.19h27.63c1.7,0,3.19-1.49,3.19-3.19
		C59.4,56.68,57.91,55.19,56.21,55.19z M28.58,57.31h27.63c0.64,0,1.06,0.43,1.06,1.06c0,0.64-0.43,1.06-1.06,1.06H28.58
		c-0.64,0-1.06-0.42-1.06-1.06C27.52,57.74,27.95,57.31,28.58,57.31z"/>
	<path d="M79.58,40.31h-4.25c-0.64,0-1.06,0.42-1.06,1.06v40.37c0,0.64,0.42,1.06,1.06,1.06h4.25c0.64,0,1.06-0.42,1.06-1.06V41.38
		C80.65,40.74,80.22,40.31,79.58,40.31z M78.52,42.44v38.25H76.4V42.44H78.52z"/>
	<path d="M9.46,40.31H5.21c-0.64,0-1.06,0.42-1.06,1.06v40.37c0,0.64,0.43,1.06,1.06,1.06h4.25c0.64,0,1.06-0.42,1.06-1.06V41.38
		C10.52,40.74,10.1,40.31,9.46,40.31z M8.4,42.44v38.25H6.27V42.44H8.4z"/>
	<path d="M12.65,30.75c-3.61,0-6.38,2.76-6.38,6.38c0,0.64,0.43,1.06,1.06,1.06h10.63c0.64,0,1.06-0.43,1.06-1.06
		C19.02,33.51,16.26,30.75,12.65,30.75z M12.86,32.88c1.7,0.21,3.19,1.27,3.83,2.98v0.21H8.61v-0.21c0.43-1.7,2.13-2.98,4.04-2.98
		H12.86z"/>
	<path d="M32.62,3.34c-3.4,1.27-5.1,4.89-3.83,8.08c0.21,0.64,0.85,0.85,1.28,0.64l9.99-3.61c0.64-0.21,0.85-0.85,0.64-1.27
		C39.63,3.76,36.02,2.06,32.62,3.34z M33.68,5.25c1.7-0.43,3.61,0.21,4.46,1.49v0.21L30.5,9.71V9.5c0-1.91,1.06-3.61,2.76-4.25
		H33.68z"/>
	<path d="M19.02,0.79c0.21-0.64,0.64-0.85,1.27-0.85h0.21l10.63,4.25c0.64,0.21,0.85,0.85,0.64,1.27c-0.21,0.64-0.85,0.85-1.27,0.85
		h-0.21l-9.56-3.83L13.5,32.03c-0.21,0.42-0.64,0.85-1.06,0.85h-0.21c-0.43-0.21-0.85-0.64-0.85-1.06V31.6L19.02,0.79z"/>
</g>
</svg>
